# xmcd
#
# Track frame offsets:
#	150
#	15548
#	27985
#	39510
#	52874
#	71507
#	83650
#	99479
#	112959
#	124809
#	138984
#	153006
#	165846
#	180401
#	197150
#	208806
#	219305
#	231802
#	246245
#	260882
#	272252
#	289212
#	301651
#	313089
#
# Disc length: 4310 seconds
#
# Revision: 0
# Processed by: cddbd v1.5.2PL0 Copyright (c) Steve Scherf et al.
# Submitted via: audiograbber 1.83.01
#
DISCID=3f10d418
DTITLE=Dinah Washington  - The Very Best Of (3/3)
DYEAR=2006
DGENRE=
TTITLE0=Is You Is Or Is You Ain't My Baby?
TTITLE1=You're Nobody 'Till Somebody Loves You
TTITLE2=Red Sails In The Sunset
TTITLE3=Coquette
TTITLE4=There Must Be A Way
TTITLE5=Let Me Be The First To Know
TTITLE6=Drinking Again
TTITLE7=Bill
TTITLE8=Drown In My Own Tears
TTITLE9=A Stranger On Earth
TTITLE10=I Didn't Know About You
TTITLE11=I'll Close My Eyes
TTITLE12=For All We Know
TTITLE13=What's New
TTITLE14=Funny Thing
TTITLE15=That Old Feeling
TTITLE16=He's Gone Again
TTITLE17=It's A Mean Old Man's World
TTITLE18=Make Someone Happy
TTITLE19=Icy Stone
TTITLE20=If I Never Get To Heaven
TTITLE21=Love Is The Sweetest Thing
TTITLE22=The Good Life
TTITLE23=On The Street Of Regret
EXTD=
EXTT0=
EXTT1=
EXTT2=
EXTT3=
EXTT4=
EXTT5=
EXTT6=
EXTT7=
EXTT8=
EXTT9=
EXTT10=
EXTT11=
EXTT12=
EXTT13=
EXTT14=
EXTT15=
EXTT16=
EXTT17=
EXTT18=
EXTT19=
EXTT20=
EXTT21=
EXTT22=
EXTT23=
PLAYORDER=
